HIERARCHY
ROOT Hips
{
	OFFSET 0.000000 0.000000 0.000000
	CHANNELS 6 Xposition Yposition Zposition Xrotation Yrotation Zrotation
	JOINT LeftUpLeg_virtual
	{
		OFFSET 0.000000 0.000000 0.000000
		CHANNELS 3 Xrotation Yrotation Zrotation
		JOINT LeftUpLeg
		{
			OFFSET 11.394100 -6.187798 -0.413800
			CHANNELS 3 Xrotation Yrotation Zrotation
			JOINT LeftLeg
			{
				OFFSET 0.430247 -32.302673 3.732800
				CHANNELS 3 Xrotation Yrotation Zrotation
				JOINT LeftFoot
				{
					OFFSET -0.430247 -48.264931 -6.423300
					CHANNELS 3 Xrotation Yrotation Zrotation
					JOINT LeftToeBase
					{
						OFFSET 4.230900 -16.068199 23.438400
						CHANNELS 3 Xrotation Yrotation Zrotation
						JOINT LeftToe_End
						{
							OFFSET 4.510700 0.695400 19.974600
							CHANNELS 3 Xrotation Yrotation Zrotation
							End Site
							{
								OFFSET 0 0 0
							}
						}
					}
				}
			}
		}
	}
	JOINT RightUpLeg_virtual
	{
		OFFSET 0.000000 0.000000 0.000000
		CHANNELS 3 Xrotation Yrotation Zrotation
		JOINT RightUpLeg
		{
			OFFSET -11.333700 -6.187798 -0.413800
			CHANNELS 3 Xrotation Yrotation Zrotation
			JOINT RightLeg
			{
				OFFSET -0.430392 -32.302628 3.733000
				CHANNELS 3 Xrotation Yrotation Zrotation
				JOINT RightFoot
				{
					OFFSET 0.430392 -48.264973 -6.423500
					CHANNELS 3 Xrotation Yrotation Zrotation
					JOINT RightToeBase
					{
						OFFSET -4.230900 -16.068199 23.438400
						CHANNELS 3 Xrotation Yrotation Zrotation
						JOINT RightToe_End
						{
							OFFSET -4.510700 0.695400 19.974600
							CHANNELS 3 Xrotation Yrotation Zrotation
							End Site
							{
								OFFSET 0 0 0
							}
						}
					}
				}
			}
		}
	}
	JOINT Spine_virtual
	{
		OFFSET 0.000000 0.000000 0.000000
		CHANNELS 3 Xrotation Yrotation Zrotation
		JOINT Spine
		{
			OFFSET -0.002400 12.777504 0.315300
			CHANNELS 3 Xrotation Yrotation Zrotation
			JOINT Spine1
			{
				OFFSET -0.002067 5.816869 0.032633
				CHANNELS 3 Xrotation Yrotation Zrotation
				JOINT Spine1_split
				{
					OFFSET -0.002067 5.816869 0.032633
					CHANNELS 3 Xrotation Yrotation Zrotation
					JOINT Spine2
					{
						OFFSET -0.002067 5.816869 0.032633
						CHANNELS 3 Xrotation Yrotation Zrotation
						JOINT Neck_virtual
						{
							OFFSET 0.000000 0.000000 0.000000
							CHANNELS 3 Xrotation Yrotation Zrotation
							JOINT Neck
							{
								OFFSET -0.003700 21.199493 -0.826900
								CHANNELS 3 Xrotation Yrotation Zrotation
								JOINT Head
								{
									OFFSET 0.000000 20.442200 4.834800
									CHANNELS 3 Xrotation Yrotation Zrotation
									JOINT HeadTop_End
									{
										OFFSET 0.000000 34.668396 4.968400
										CHANNELS 3 Xrotation Yrotation Zrotation
										End Site
										{
											OFFSET 0 0 0
										}
									}
								}
							}
						}
						JOINT LeftShoulder_virtual
						{
							OFFSET 0.000000 0.000000 0.000000
							CHANNELS 3 Xrotation Yrotation Zrotation
							JOINT LeftShoulder
							{
								OFFSET 3.288150 8.794197 -1.372250
								CHANNELS 3 Xrotation Yrotation Zrotation
								JOINT LeftShoulder_split
								{
									OFFSET 3.288150 8.794197 -1.372250
									CHANNELS 3 Xrotation Yrotation Zrotation
									JOINT LeftArm
									{
										OFFSET 11.953299 -2.279007 -0.146200
										CHANNELS 3 Xrotation Yrotation Zrotation
										JOINT LeftForeArm
										{
											OFFSET 18.448900 0.000000 0.000000
											CHANNELS 3 Xrotation Yrotation Zrotation
											JOINT LeftHand
											{
												OFFSET 29.527798 0.000000 0.000000
												CHANNELS 3 Xrotation Yrotation Zrotation
												End Site
												{
													OFFSET 0 0 0
												}
											}
										}
									}
								}
							}
						}
						JOINT RightShoulder_virtual
						{
							OFFSET 0.000000 0.000000 0.000000
							CHANNELS 3 Xrotation Yrotation Zrotation
							JOINT RightShoulder
							{
								OFFSET -3.249400 8.794197 -1.372250
								CHANNELS 3 Xrotation Yrotation Zrotation
								JOINT RightShoulder_split
								{
									OFFSET -3.249400 8.794197 -1.372250
									CHANNELS 3 Xrotation Yrotation Zrotation
									JOINT RightArm
									{
										OFFSET -11.953299 -2.279007 -0.146200
										CHANNELS 3 Xrotation Yrotation Zrotation
										JOINT RightForeArm
										{
											OFFSET -18.448900 0.000000 0.000000
											CHANNELS 3 Xrotation Yrotation Zrotation
											JOINT RightHand
											{
												OFFSET -29.527802 0.000000 0.000000
												CHANNELS 3 Xrotation Yrotation Zrotation
												End Site
												{
													OFFSET 0 0 0
												}
											}
										}
									}
								}
							}
						}
					}
				}
			}
		}
	}
}
MOTION
Frames: 4
Frame Time: 0.03333333
-6.028481 84.104378 -1.699612 0.000000 0.000000 0.000000 27.728878 -45.831594 11.028712 -93.724177 -1.851000 7.633495 60.090877 1.046724 2.190343 20.832473 -2.860687 -7.722887 -4.584014 2.106291 0.712824 0.000000 0.000000 0.000000 26.163398 -45.848516 9.825683 -37.818734 -11.350331 -19.084064 51.608882 -13.741407 5.562918 -14.118962 -11.886894 26.323622 -5.006939 -1.058712 5.055079 0.000000 0.000000 0.000000 29.889574 -46.340177 11.801502 -1.114789 6.937222 -1.650749 -1.408167 2.405526 0.357204 0.958842 -1.004696 0.343053 0.000000 0.000000 0.000000 0.520088 0.088749 1.163618 10.278993 6.335094 -7.664153 -3.050297 20.154934 11.347843 0.000000 0.000000 0.000000 -2.381171 1.110064 0.868467 3.213523 2.565934 -9.240282 1.039640 4.830477 1.457463 -52.775796 -28.496391 -47.037173 1.878611 -70.964791 3.024858 0.000000 0.000000 0.000000 -2.166121 0.099349 0.710526 -12.745831 -1.015402 -2.769489 -8.319333 -0.565052 -2.007267 -106.809781 37.140294 126.106575 -4.699968 24.974517 2.297392 0.000000 0.000000 0.000000 
-5.261701 84.678116 -5.969067 0.000000 0.000000 0.000000 28.003415 -44.250757 10.113387 -91.186147 -1.924411 6.410369 63.076333 0.588048 2.960709 17.594634 -3.507679 -8.521346 -5.863122 1.375286 2.627594 0.000000 0.000000 0.000000 26.433928 -45.679106 9.441289 -37.637686 -13.061063 -17.376409 49.544352 -12.921797 4.833663 -15.980491 -11.188158 26.794392 -2.801906 -0.089166 2.904587 0.000000 0.000000 0.000000 31.541472 -46.293123 12.241625 -1.415929 7.152429 -1.308616 -1.416382 2.549480 0.296395 1.918443 -0.951688 0.461729 0.000000 0.000000 0.000000 0.583159 0.195004 1.132442 10.489961 6.114713 -7.486728 -2.824938 20.159580 11.282941 0.000000 0.000000 0.000000 -2.185070 1.165424 0.788805 3.120997 2.229157 -9.570665 1.678278 4.871737 1.216059 -52.268972 -28.831786 -46.821773 1.805997 -70.438156 2.882817 0.000000 0.000000 0.000000 -1.952206 0.297605 0.794897 -12.762110 -1.122305 -2.497529 -8.577703 -0.285694 -1.968817 -106.901367 37.779484 126.347872 -4.408586 23.694090 2.235915 0.000000 0.000000 0.000000 
-4.228287 85.060745 -12.093616 0.000000 0.000000 0.000000 28.516062 -44.329673 9.456570 -86.863436 -1.130514 4.888160 65.359972 -0.371768 4.239629 12.408256 -5.223186 -8.445981 -8.864300 0.348580 5.181293 0.000000 0.000000 0.000000 27.244248 -47.203550 9.629258 -39.292658 -15.666454 -15.763011 48.025813 -11.629430 4.399919 -16.402643 -9.644982 27.528693 -3.935392 0.648682 -0.805745 0.000000 0.000000 0.000000 33.556573 -47.202297 12.908100 -1.495092 7.723884 -0.705011 -1.413136 3.026041 0.303685 2.313228 -0.943533 0.577156 0.000000 0.000000 0.000000 0.674388 0.608869 1.115759 10.614779 5.667624 -7.000728 -2.422276 19.457358 11.446005 0.000000 0.000000 0.000000 -2.078307 1.549500 0.763374 2.950609 1.618305 -9.963687 1.999035 4.633504 1.203696 -51.809761 -29.723525 -46.583929 1.355866 -70.643745 2.433580 0.000000 0.000000 0.000000 -1.640784 0.809551 0.922226 -12.916305 -1.500193 -1.790482 -8.825137 -0.162406 -2.207163 -106.912466 38.384980 126.255623 -3.977607 22.505391 1.975267 0.000000 0.000000 0.000000 
-3.392636 84.922745 -18.959148 0.000000 0.000000 0.000000 29.502353 -46.299783 9.553288 -82.457192 -0.042259 3.832243 66.472043 -1.808409 5.374782 6.855346 -7.663783 -7.174081 -12.028247 -0.746584 7.514287 0.000000 0.000000 0.000000 28.341332 -50.187663 10.344795 -41.754090 -18.333527 -14.851884 48.244037 -10.083539 4.423774 -15.912676 -8.303209 27.892573 -6.943096 1.155259 -4.645995 0.000000 0.000000 0.000000 35.464200 -48.947605 13.733075 -1.336966 8.532453 0.023125 -1.445209 3.700945 0.374145 1.747288 -0.835545 0.631948 0.000000 0.000000 0.000000 0.748097 1.212602 1.131387 10.566237 5.114104 -6.314994 -1.984530 18.303660 11.717543 0.000000 0.000000 0.000000 -2.054616 2.133594 0.792766 2.755434 0.910648 -10.306587 2.086650 4.320430 1.229625 -51.527005 -30.941273 -46.203720 0.518842 -71.341941 1.653362 0.000000 0.000000 0.000000 -1.313224 1.508199 1.085119 -13.149879 -2.030039 -0.949288 -9.043742 -0.239703 -2.476289 -106.810280 38.683599 125.855484 -3.541883 21.800306 1.619190 0.000000 0.000000 0.000000 
